<svg width="21" height="21" viewBox="0 0 21 21" fill="none" xmlns="http://www.w3.org/2000/svg">
<path d="M16.0129 4.99623C15.932 4.91512 15.8358 4.85076 15.73 4.80685C15.6241 4.76294 15.5107 4.74034 15.3961 4.74034C15.2815 4.74034 15.168 4.76294 15.0621 4.80685C14.9563 4.85076 14.8601 4.91512 14.7792 4.99623L10.5004 9.26623L6.22169 4.98748C6.14068 4.90647 6.04451 4.84221 5.93867 4.79837C5.83282 4.75453 5.71938 4.73196 5.60482 4.73196C5.49025 4.73196 5.37681 4.75453 5.27096 4.79837C5.16512 4.84221 5.06895 4.90647 4.98794 4.98748C4.90693 5.06849 4.84267 5.16466 4.79883 5.27051C4.75499 5.37635 4.73242 5.48979 4.73242 5.60436C4.73242 5.71892 4.75499 5.83236 4.79883 5.93821C4.84267 6.04405 4.90693 6.14022 4.98794 6.22123L9.26669 10.5L4.98794 14.7787C4.90693 14.8597 4.84267 14.9559 4.79883 15.0618C4.75499 15.1676 4.73242 15.281 4.73242 15.3956C4.73242 15.5102 4.75499 15.6236 4.79883 15.7295C4.84267 15.8353 4.90693 15.9315 4.98794 16.0125C5.06895 16.0935 5.16512 16.1578 5.27096 16.2016C5.37681 16.2454 5.49025 16.268 5.60482 16.268C5.71938 16.268 5.83282 16.2454 5.93867 16.2016C6.04451 16.1578 6.14068 16.0935 6.22169 16.0125L10.5004 11.7337L14.7792 16.0125C14.8602 16.0935 14.9564 16.1578 15.0622 16.2016C15.1681 16.2454 15.2815 16.268 15.3961 16.268C15.5106 16.268 15.6241 16.2454 15.7299 16.2016C15.8358 16.1578 15.9319 16.0935 16.0129 16.0125C16.0939 15.9315 16.1582 15.8353 16.2021 15.7295C16.2459 15.6236 16.2685 15.5102 16.2685 15.3956C16.2685 15.281 16.2459 15.1676 16.2021 15.0618C16.1582 14.9559 16.0939 14.8597 16.0129 14.7787L11.7342 10.5L16.0129 6.22123C16.3454 5.88873 16.3454 5.32873 16.0129 4.99623Z" fill="white"/>
</svg>
