<svg width="21" height="21" viewBox="0 0 21 21" fill="none" xmlns="http://www.w3.org/2000/svg">
<path d="M10.8427 13.8347L15.8693 7.89447C15.9532 7.79535 16 7.66367 16 7.52674C16 7.3898 15.9532 7.25812 15.8693 7.15901L15.8636 7.15261C15.8229 7.10439 15.774 7.066 15.7197 7.03977C15.6654 7.01353 15.607 7 15.5479 7C15.4888 7 15.4304 7.01353 15.3761 7.03977C15.3218 7.066 15.2729 7.10439 15.2322 7.15261L10.4991 12.7464L5.76781 7.15261C5.72713 7.10439 5.67816 7.066 5.62389 7.03977C5.56962 7.01353 5.51117 7 5.45211 7C5.39304 7 5.3346 7.01353 5.28032 7.03977C5.22605 7.066 5.17709 7.10439 5.13641 7.15261L5.13073 7.159C5.04681 7.25812 5 7.3898 5 7.52674C5 7.66367 5.04681 7.79535 5.13073 7.89447L10.1573 13.8347C10.2015 13.8869 10.2547 13.9285 10.3136 13.9569C10.3725 13.9853 10.4359 14 10.5 14C10.5641 14 10.6275 13.9853 10.6864 13.9569C10.7453 13.9285 10.7985 13.8869 10.8427 13.8347Z" fill="white" stroke="white"/>
</svg>
